<?xml version="1.0" standalone="no"?>
<!DOCTYPE svg PUBLIC "-//W3C//DTD SVG 20010904//EN"
 "http://www.w3.org/TR/2001/REC-SVG-20010904/DTD/svg10.dtd">
<svg version="1.0" xmlns="http://www.w3.org/2000/svg"
 width="260.000000pt" height="260.000000pt" viewBox="0 0 260.000000 260.000000"
 preserveAspectRatio="xMidYMid meet">
<metadata>
Created by potrace 1.14, written by Peter Selinger 2001-2017
</metadata>
<g transform="translate(0.000000,260.000000) scale(0.100000,-0.100000)"
fill="#000000" stroke="none">
<path d="M1315 2297 c-22 -8 -63 -27 -90 -43 -45 -26 -62 -30 -158 -34 l-109
-5 -33 -37 c-68 -73 -69 -162 -6 -293 l38 -80 36 70 c19 39 43 79 52 90 11 13
9 6 -4 -19 -31 -55 -73 -157 -68 -163 9 -8 111 49 182 101 91 68 176 118 250
149 114 47 110 39 -10 -21 -155 -78 -375 -225 -375 -251 0 -13 49 -31 86 -31
19 0 97 25 172 55 129 51 282 95 327 95 11 -1 -29 -14 -90 -30 -108 -28 -243
-78 -327 -121 l-42 -22 65 -32 c80 -41 99 -43 223 -26 101 14 267 10 336 -8
26 -7 18 -8 -30 -3 -98 10 -278 4 -340 -11 -55 -14 -55 -14 -27 -26 50 -20
167 -100 221 -150 66 -62 74 -66 182 -85 90 -15 260 -64 252 -71 -2 -3 -33 4
-67 15 -54 16 -114 27 -238 44 -13 2 -23 1 -23 -1 0 -2 61 -78 135 -169 74
-90 133 -164 131 -164 -3 0 -60 63 -127 140 -67 77 -124 140 -127 140 -5 0 5
-253 12 -310 3 -19 -1 -6 -9 30 -8 36 -17 119 -21 185 l-7 120 -49 52 c-48 50
-186 153 -206 153 -15 0 -26 -179 -19 -295 8 -123 31 -262 63 -369 12 -44 21
-82 19 -84 -6 -7 -55 160 -77 265 -15 76 -21 145 -24 303 l-3 205 -108 46
-108 46 -43 -66 c-76 -119 -125 -271 -142 -445 l-9 -91 4 105 c6 139 41 277
104 405 49 98 49 100 31 119 -14 14 -37 21 -79 24 -52 4 -69 0 -127 -27 -100
-47 -226 -135 -323 -226 -73 -68 -79 -72 -44 -29 59 71 133 133 265 219 62 41
122 81 133 88 34 25 -110 52 -270 51 -113 0 -140 -3 -205 -26 -89 -31 -107
-30 -24 2 109 40 182 52 286 47 l96 -5 -76 64 c-135 112 -151 119 -267 118
-121 -2 -223 -27 -348 -86 -117 -56 -159 -107 -128 -157 8 -12 18 -9 58 17 74
48 156 82 211 89 54 6 122 -3 122 -16 0 -9 -171 -83 -277 -121 -86 -31 -96
-45 -91 -119 3 -48 15 -83 56 -163 28 -57 62 -116 75 -132 l24 -30 23 70 c73
221 207 363 361 381 80 9 131 -24 115 -75 -4 -10 -45 -40 -93 -67 -100 -56
-216 -146 -254 -196 -58 -76 -73 -119 -73 -204 1 -129 44 -215 202 -408 l72
-88 0 74 c0 214 38 403 111 554 77 160 221 299 301 291 44 -4 46 -30 14 -144
-42 -146 -59 -274 -58 -444 0 -166 15 -268 50 -337 29 -55 103 -121 207 -183
50 -29 109 -66 133 -82 l43 -30 -6 64 c-11 97 -38 215 -99 426 -80 275 -105
450 -76 526 13 35 54 60 85 52 45 -12 57 -54 66 -246 12 -260 28 -402 55 -509
41 -165 147 -346 224 -386 23 -12 52 -13 176 -4 81 5 150 12 152 14 3 2 -13
26 -35 52 -187 227 -304 480 -343 745 -9 63 -9 82 4 112 11 28 21 36 40 36 29
0 54 -22 61 -53 2 -12 9 -71 15 -132 30 -315 169 -638 297 -691 48 -21 122
-17 162 7 l33 20 -64 67 c-82 84 -133 164 -169 262 -37 103 -46 169 -25 195
16 20 17 19 55 -23 28 -30 50 -71 76 -145 21 -56 48 -123 61 -148 61 -123 203
-171 323 -110 35 18 38 25 64 115 15 53 27 107 27 121 0 32 -50 81 -242 242
-106 89 -138 121 -138 139 0 37 31 31 150 -27 131 -64 225 -152 258 -239 l20
-55 22 48 c67 150 24 242 -183 387 -136 96 -309 166 -541 219 -73 16 -135 36
-146 46 -25 23 -26 67 -1 89 52 47 137 24 250 -68 82 -66 122 -91 286 -179
170 -91 238 -137 305 -207 l55 -58 -6 147 c-3 99 -10 157 -21 181 -47 109
-304 243 -547 285 -50 9 -149 15 -248 15 -232 0 -299 20 -256 78 29 40 104 63
183 57 143 -11 405 -99 687 -229 76 -36 140 -63 141 -61 2 2 -31 79 -75 171
-64 138 -84 171 -110 186 -66 39 -179 42 -842 25 -51 -2 -66 2 -75 15 -8 14
-7 21 6 34 24 25 70 30 173 20 68 -7 141 -5 272 7 177 15 261 12 326 -12 15
-6 27 -8 27 -4 0 13 -111 140 -150 171 -73 59 -125 77 -220 76 -80 0 -101 -6
-343 -88 -142 -48 -265 -85 -274 -82 -18 7 -10 51 14 78 38 43 82 53 230 53
78 0 145 3 149 8 13 12 -35 54 -89 78 -63 27 -175 35 -232 16z m352 -413 c-3
-3 -12 -4 -19 -1 -8 3 -5 6 6 6 11 1 17 -2 13 -5z m170 -260 c-3 -3 -12 -4
-19 -1 -8 3 -5 6 6 6 11 1 17 -2 13 -5z m233 -344 c8 -5 11 -10 5 -10 -5 0
-17 5 -25 10 -8 5 -10 10 -5 10 6 0 17 -5 25 -10z m-333 -352 c-3 -8 -6 -5 -6
6 -1 11 2 17 5 13 3 -3 4 -12 1 -19z m10 -40 c-3 -8 -6 -5 -6 6 -1 11 2 17 5
13 3 -3 4 -12 1 -19z"/>
</g>
</svg>
